<?xml version="1.0" standalone="no"?>
<!DOCTYPE svg PUBLIC "-//W3C//DTD SVG 20010904//EN"
 "http://www.w3.org/TR/2001/REC-SVG-20010904/DTD/svg10.dtd">
<svg version="1.0" xmlns="http://www.w3.org/2000/svg"
 width="300.000000pt" height="240.000000pt" viewBox="0 0 300.000000 240.000000"
 preserveAspectRatio="xMidYMid meet">
<metadata>
Created by potrace 1.10, written by Peter Selinger 2001-2011
</metadata>
<g transform="translate(0.000000,240.000000) scale(0.100000,-0.100000)"
fill="#cc0000" stroke="none">
<path d="M321 2163 c-19 -10 -48 -35 -65 -56 l-31 -39 0 -877 0 -878 28 -36
c60 -79 -57 -72 1247 -72 1304 0 1187 -7 1247 72 l28 36 0 876 c0 837 -1 877
-19 906 -10 17 -32 41 -49 55 l-31 25 -1161 3 c-1090 2 -1162 1 -1194 -15z m9
-33 c0 -5 -5 -10 -11 -10 -5 0 -7 5 -4 10 3 6 8 10 11 10 2 0 4 -4 4 -10z
m2355 0 c3 -5 1 -10 -4 -10 -6 0 -11 5 -11 10 0 6 2 10 4 10 3 0 8 -4 11 -10z
m-8 -44 l28 -24 0 -872 0 -872 -30 -24 -30 -24 -1145 0 -1145 0 -30 24 -30 24
0 872 0 872 30 24 30 24 1147 0 1147 0 28 -24z m-2401 -23 c-10 -10 -19 5 -10
18 6 11 8 11 12 0 2 -7 1 -15 -2 -18z m2458 11 c3 -8 2 -12 -4 -9 -6 3 -10 10
-10 16 0 14 7 11 14 -7z m-2477 -777 c-1 -128 -2 -20 -2 238 0 259 1 363 2
232 2 -131 2 -343 0 -470z m0 -754 c-1 -98 -2 -20 -2 172 -1 193 1 273 2 178
2 -94 2 -252 0 -350z m2490 -145 c-3 -7 -5 -2 -5 12 0 14 2 19 5 13 2 -7 2
-19 0 -25z m-2475 -73 c3 -13 1 -22 -3 -19 -9 5 -13 44 -5 44 2 0 6 -11 8 -25z
m2465 -17 c-3 -7 -5 -2 -5 12 0 14 2 19 5 13 2 -7 2 -19 0 -25z m-2401 -59 c4
-8 1 -8 -14 0 -12 6 -24 16 -28 22 -4 8 -1 8 14 0 12 -6 24 -16 28 -22z m2359
11 c-3 -5 -11 -10 -16 -10 -6 0 -7 5 -4 10 3 6 11 10 16 10 6 0 7 -4 4 -10z"/>
<path d="M1923 2019 c-50 -14 -83 -61 -83 -118 0 -131 172 -166 229 -47 17 34
19 48 11 76 -6 19 -16 42 -23 51 -26 34 -86 51 -134 38z m-13 -43 c0 -2 -8
-10 -17 -17 -16 -13 -17 -12 -4 4 13 16 21 21 21 13z m120 -17 c0 -6 -4 -7
-10 -4 -5 3 -10 11 -10 16 0 6 5 7 10 4 6 -3 10 -11 10 -16z m-24 -24 c19 -29
11 -60 -22 -81 -22 -15 -26 -15 -48 0 -33 21 -41 52 -22 81 11 17 26 25 46 25
20 0 35 -8 46 -25z m41 -57 c-3 -8 -6 -5 -6 6 -1 11 2 17 5 13 3 -3 4 -12 1
-19z m-151 -26 c-3 -3 2 -11 12 -19 15 -13 15 -13 -4 -4 -25 12 -41 43 -18 34
8 -3 12 -8 10 -11z"/>
<path d="M2195 2014 c-22 -7 -41 -14 -42 -14 -12 -1 -33 -68 -33 -103 0 -149
222 -154 237 -5 9 93 -72 155 -162 122z m-5 -38 c0 -3 -4 -8 -10 -11 -5 -3
-10 -1 -10 4 0 6 5 11 10 11 6 0 10 -2 10 -4z m90 -31 c17 -21 16 -64 -3 -82
-34 -34 -96 -8 -97 41 0 46 71 76 100 41z m-123 -17 c-3 -8 -6 -5 -6 6 -1 11
2 17 5 13 3 -3 4 -12 1 -19z m154 -81 c-13 -12 -20 -15 -16 -7 14 26 28 41 33
35 3 -3 -5 -16 -17 -28z"/>
<path d="M2488 2023 c-15 -3 -41 -18 -58 -34 -26 -27 -30 -37 -30 -89 0 -53 3
-61 31 -84 56 -48 125 -47 173 3 84 87 8 221 -116 204z m99 -58 c9 -24 -1 -27
-15 -5 -8 13 -8 20 -2 20 6 0 13 -7 17 -15z m-149 -25 c-7 -10 -14 -17 -17
-15 -4 4 18 35 25 35 2 0 -1 -9 -8 -20z m113 10 c29 -16 26 -75 -5 -95 -54
-36 -114 38 -69 87 18 20 45 23 74 8z m56 -37 c1 -24 0 -25 -6 -8 -7 17 -6 35
2 35 2 0 3 -12 4 -27z m-141 -75 l29 -31 -32 22 c-35 23 -50 41 -35 41 4 0 21
-14 38 -32z"/>
<path d="M705 1612 c-200 -2 -211 -3 -227 -23 -16 -18 -18 -44 -18 -199 0
-162 2 -178 19 -194 17 -16 52 -18 345 -21 311 -3 327 -2 351 17 l25 19 0 183
c0 162 -2 185 -17 199 -21 18 -148 23 -478 19z m-167 -40 c-34 -4 -37 -15 -41
-147 l-3 -100 -2 113 c-2 131 4 152 45 143 l28 -6 -27 -3z m259 2 c-3 -3 -12
-4 -19 -1 -8 3 -5 6 6 6 11 1 17 -2 13 -5z m359 -2 c13 -8 15 -44 2 -36 -4 3
-8 11 -8 19 0 7 -8 16 -17 18 -13 3 -14 5 -3 6 8 0 20 -3 26 -7z m-18 -182 l3
-150 -308 0 -308 0 2 152 c1 84 3 153 3 153 0 0 136 -1 302 -2 l303 -2 3 -151z
m-623 -178 c-8 -8 -25 10 -25 26 0 13 2 13 14 -4 8 -10 13 -21 11 -22z m655
15 c0 -8 -6 -14 -14 -14 -8 0 -12 6 -9 14 3 7 9 13 14 13 5 0 9 -6 9 -13z"/>
<path d="M1790 1608 c-34 -13 -40 -43 -40 -215 0 -135 3 -173 15 -189 14 -18
16 -18 29 -1 13 17 51 22 80 11 28 -11 17 -19 -26 -19 -24 0 -44 -4 -46 -9 -3
-12 628 -15 653 -3 11 5 23 15 27 21 4 6 8 90 8 187 0 154 -2 180 -17 198 -18
20 -26 21 -341 23 -178 2 -332 0 -342 -4z m40 -35 c-8 -3 -21 -10 -27 -16 -9
-7 -13 -5 -13 7 0 11 8 16 28 15 15 0 21 -3 12 -6z m625 -15 c3 -13 4 -72 3
-133 l-4 -110 -2 117 c-2 108 -4 118 -24 132 l-22 16 22 0 c14 0 24 -8 27 -22z
m-32 -167 l2 -151 -305 0 -305 0 2 148 c1 81 2 149 2 152 1 3 136 4 302 3
l301 -2 1 -150z m35 -163 c-2 -6 -10 -14 -16 -16 -7 -2 -10 2 -6 12 7 18 28
22 22 4z"/>
<path d="M1266 1207 c-18 -13 -17 -19 20 -156 42 -158 54 -175 99 -140 l26 21
83 -81 c98 -95 126 -103 178 -51 26 27 30 36 25 68 -5 29 -22 53 -82 111 -42
41 -73 79 -71 85 3 6 12 20 20 31 27 37 14 43 -199 100 -27 8 -57 16 -65 20
-9 3 -24 -1 -34 -8z m57 -36 c17 -6 17 -8 3 -20 -9 -7 -16 -23 -17 -35 0 -15
-4 -12 -14 14 -21 54 -17 59 28 41z m109 -62 c33 -9 37 -12 28 -29 -5 -10 -10
-22 -10 -26 0 -4 41 -46 90 -95 50 -48 90 -94 90 -103 0 -37 -28 -21 -119 68
-109 108 -130 114 -132 42 -2 -39 -2 -38 -9 14 -8 52 -18 91 -36 134 -7 17 -4
19 26 12 19 -3 51 -11 72 -17z m97 -1 c0 -4 -6 -22 -14 -40 -14 -35 -19 -30
-29 29 -5 29 -3 31 19 25 14 -4 25 -10 24 -14z m-199 -42 c0 -2 -7 -9 -15 -16
-13 -11 -14 -10 -9 4 5 14 24 23 24 12z m0 -71 l-8 -40 -1 36 c0 20 2 39 6 42
11 11 11 4 3 -38z m233 5 c3 -11 1 -23 -4 -26 -5 -3 -9 6 -9 20 0 31 6 34 13
6z m-156 -47 c-3 -10 -5 -2 -5 17 0 19 2 27 5 18 2 -10 2 -26 0 -35z m183 6
c0 -11 -4 -18 -10 -14 -5 3 -7 12 -3 20 7 21 13 19 13 -6z m-119 -24 c5 4 9 1
9 -4 0 -6 -7 -11 -15 -11 -9 0 -15 9 -14 23 1 17 2 18 6 4 2 -9 9 -15 14 -12z
m189 -53 c0 -3 -11 5 -25 18 -14 13 -25 28 -25 34 0 6 11 -2 25 -18 14 -16 25
-31 25 -34z m10 -22 c0 -5 -5 -10 -11 -10 -5 0 -7 5 -4 10 3 6 8 10 11 10 2 0
4 -4 4 -10z m-115 -20 c3 -6 -1 -7 -9 -4 -18 7 -21 14 -7 14 6 0 13 -4 16 -10z
m91 -26 c-22 -16 -66 -19 -66 -5 0 5 8 7 18 5 9 -3 26 2 37 10 11 8 22 12 25
9 3 -2 -4 -11 -14 -19z"/>
<path d="M500 980 l0 -40 334 0 333 0 -1 38 -1 37 -332 3 -333 2 0 -40z m199
-20 c1 -13 0 -13 -9 0 -5 8 -9 24 -9 35 0 20 0 20 9 0 5 -11 9 -27 9 -35z m87
14 c-9 -24 -70 -15 -74 11 -3 19 -2 19 11 3 20 -25 44 -22 53 5 4 13 9 17 12
9 2 -7 1 -20 -2 -28z m71 -11 c-3 -10 -5 -2 -5 17 0 19 2 27 5 18 2 -10 2 -26
0 -35z m-46 -6 c-13 -13 -15 1 -4 30 7 17 8 17 11 -1 2 -10 -1 -23 -7 -29z
m80 6 c-9 -16 -10 -14 -11 12 0 21 3 26 11 18 8 -8 8 -16 0 -30z m79 28 c0 -5
3 -18 7 -28 6 -16 5 -16 -10 -4 -19 15 -23 41 -7 41 6 0 10 -4 10 -9z m78 -21
c17 0 34 -5 38 -12 5 -8 -6 -9 -41 -4 -45 6 -64 18 -65 40 0 5 8 2 18 -7 10
-10 33 -17 50 -17z m-3 19 c-7 -11 -35 -12 -35 -1 0 4 9 8 20 9 11 1 18 -2 15
-8z m85 2 c0 -5 3 -18 7 -28 6 -16 5 -16 -10 -4 -19 15 -23 41 -7 41 6 0 10
-4 10 -9z m-466 -10 c-11 -12 -27 -14 -86 -12 -78 2 -56 21 24 21 44 0 68 -4
62 -9z m266 -1 c0 -5 -4 -10 -10 -10 -5 0 -10 5 -10 10 0 6 5 10 10 10 6 0 10
-4 10 -10z"/>
<path d="M1788 1007 c-3 -7 -4 -25 -4 -42 l1 -30 335 0 335 0 0 40 0 40 -332
2 c-251 2 -332 -1 -335 -10z m42 -34 c0 -20 -3 -24 -11 -16 -7 7 -9 19 -6 27
10 24 17 19 17 -11z m30 2 c0 -14 -4 -25 -10 -25 -5 0 -10 11 -10 25 0 14 5
25 10 25 6 0 10 -11 10 -25z m37 -12 c-3 -10 -5 -4 -5 12 0 17 2 24 5 18 2 -7
2 -21 0 -30z m30 0 c-3 -10 -5 -4 -5 12 0 17 2 24 5 18 2 -7 2 -21 0 -30z m50
0 c-3 -10 -5 -4 -5 12 0 17 2 24 5 18 2 -7 2 -21 0 -30z m30 0 c-3 -10 -5 -4
-5 12 0 17 2 24 5 18 2 -7 2 -21 0 -30z m53 18 c0 -11 -4 -23 -10 -26 -6 -4
-10 5 -10 19 0 14 5 26 10 26 6 0 10 -9 10 -19z m30 -6 c0 -14 -4 -25 -10 -25
-5 0 -10 11 -10 25 0 14 5 25 10 25 6 0 10 -11 10 -25z m55 -23 c-9 -9 -25 11
-25 31 1 21 1 21 15 -3 7 -14 12 -27 10 -28z m50 18 c13 0 27 -4 30 -10 8 -13
-31 -13 -56 0 -10 6 -19 18 -19 28 1 16 1 16 11 0 5 -10 21 -18 34 -18z m19
19 c-6 -11 -31 -12 -37 -1 -3 4 6 8 19 8 13 1 21 -2 18 -7z m166 -19 c-25 -4
-48 -6 -52 -3 -5 2 -8 -1 -8 -8 0 -8 -4 -9 -13 0 -10 8 -17 7 -25 -1 -9 -9
-12 -8 -12 4 0 13 13 16 78 16 68 0 72 -1 32 -8z"/>
<path d="M828 772 l-328 -2 0 -40 0 -40 333 2 332 3 0 33 c0 19 -2 37 -5 40
-3 4 -152 6 -332 4z m302 -42 c0 -6 -100 -10 -257 -12 -287 -3 -343 -1 -343
13 0 5 119 9 300 9 187 0 300 -4 300 -10z"/>
<path d="M1787 763 c-6 -12 -2 -57 7 -71 9 -14 632 -17 654 -3 8 5 12 22 10
42 l-3 34 -332 3 c-182 1 -333 -1 -336 -5z m633 -41 c0 -4 -46 -6 -103 -5 -56
1 -192 3 -302 4 -110 1 -184 4 -165 8 48 8 570 2 570 -7z"/>
<path d="M500 485 l0 -45 329 0 329 0 4 34 c2 19 2 39 0 45 -3 8 -101 11 -333
11 l-329 0 0 -45z m423 6 c131 -1 207 -5 207 -11 0 -6 -107 -10 -300 -10 -185
0 -300 4 -300 10 0 8 128 18 170 13 8 -1 108 -2 223 -2z"/>
<path d="M1792 516 c-3 -6 -6 -24 -6 -40 l0 -31 335 0 334 0 -1 35 0 35 -328
5 c-202 3 -330 1 -334 -4z m628 -36 c0 -6 -107 -10 -300 -10 -193 0 -300 4
-300 10 0 6 107 10 300 10 193 0 300 -4 300 -10z"/>
</g>
</svg>
